<svg width="25" height="26" viewBox="0 0 25 26" fill="none" xmlns="http://www.w3.org/2000/svg">
<g clip-path="url(#clip0_2_7)">
<path d="M24.9981 5.63687C23.4596 5.70778 23.4932 5.70199 23.3192 5.71655L24.2304 3.11433C24.2304 3.11433 21.3862 4.16063 20.6651 4.34779C18.7715 2.64576 15.9567 2.57056 13.9443 3.80738C12.2964 4.82046 11.4119 6.56019 11.7069 8.59364C8.49973 8.14858 5.79749 6.6283 3.66402 4.06546L2.98926 3.25503L2.48505 4.18097C1.84779 5.35099 1.63618 6.68876 1.88903 7.94779C1.99278 8.46432 2.16912 8.95696 2.41339 9.41825L1.83454 9.19395L1.76587 10.1611C1.69626 11.1436 2.02338 12.2905 2.64105 13.2287C2.81497 13.493 3.03889 13.7832 3.32272 14.0694L3.02359 14.0235L3.38859 15.1318C3.86836 16.5878 4.86483 17.7144 6.15801 18.3406C4.86651 18.8887 3.8232 19.2384 2.10829 19.8025L0.539307 20.3183L1.98849 21.1106C2.54103 21.4127 4.49349 22.4217 6.42262 22.7244C10.7108 23.3969 15.5389 22.8492 18.7892 19.9219C21.5269 17.4563 22.4252 13.949 22.2386 10.2992C22.2104 9.74668 22.3618 9.21933 22.6648 8.81458C23.2718 8.00415 24.9944 5.64228 24.9981 5.63687Z" fill="#FFEE00"/>
</g>
<defs>
<clipPath id="clip0_2_7">
<rect width="24.4588" height="24.4588" fill="white" transform="translate(0.539307 0.717773)"/>
</clipPath>
</defs>
</svg>
